solid ramp_upper
  facet normal -0 0.17078672 0.98530802
    outer loop
      vertex 11.8 1.6 2.6
      vertex 13 1.6 2.6
      vertex 13 9.1 1.3
    endloop
  endfacet
  facet normal 0 0.17078672 0.98530802
    outer loop
      vertex 11.8 1.6 2.6
      vertex 13 9.1 1.3
      vertex 11.8 9.1 1.3
    endloop
  endfacet
  facet normal 0 -0.17078672 -0.98530802
    outer loop
      vertex 11.8 1.6 2.44
      vertex 13 9.1 1.14
      vertex 13 1.6 2.44
    endloop
  endfacet
  facet normal 0 -0.17078672 -0.98530802
    outer loop
      vertex 11.8 1.6 2.44
      vertex 11.8 9.1 1.14
      vertex 13 9.1 1.14
    endloop
  endfacet
  facet normal 0 -1 0
    outer loop
      vertex 11.8 1.6 2.6
      vertex 11.8 1.6 2.44
      vertex 13 1.6 2.44
    endloop
  endfacet
  facet normal 0 -1 0
    outer loop
      vertex 11.8 1.6 2.6
      vertex 13 1.6 2.44
      vertex 13 1.6 2.6
    endloop
  endfacet
  facet normal 1 0 0
    outer loop
      vertex 13 1.6 2.6
      vertex 13 1.6 2.44
      vertex 13 9.1 1.14
    endloop
  endfacet
  facet normal 1 0 0
    outer loop
      vertex 13 1.6 2.6
      vertex 13 9.1 1.14
      vertex 13 9.1 1.3
    endloop
  endfacet
  facet normal 0 1 0
    outer loop
      vertex 13 9.1 1.3
      vertex 13 9.1 1.14
      vertex 11.8 9.1 1.14
    endloop
  endfacet
  facet normal 0 1 0
    outer loop
      vertex 13 9.1 1.3
      vertex 11.8 9.1 1.14
      vertex 11.8 9.1 1.3
    endloop
  endfacet
  facet normal -1 -0 -0
    outer loop
      vertex 11.8 9.1 1.3
      vertex 11.8 9.1 1.14
      vertex 11.8 1.6 2.44
    endloop
  endfacet
  facet normal -1 0 0
    outer loop
      vertex 11.8 9.1 1.3
      vertex 11.8 1.6 2.44
      vertex 11.8 1.6 2.6
    endloop
  endfacet
endsolid ramp_upper
