solid ramp_lower
  facet normal 0 -0.17078672 0.98530802
    outer loop
      vertex 10.2 1.6 0
      vertex 11.4 1.6 0
      vertex 11.4 9.1 1.3
    endloop
  endfacet
  facet normal 0 -0.17078672 0.98530802
    outer loop
      vertex 10.2 1.6 0
      vertex 11.4 9.1 1.3
      vertex 10.2 9.1 1.3
    endloop
  endfacet
  facet normal 0 0.17078672 -0.98530802
    outer loop
      vertex 10.2 1.6 -0.16
      vertex 11.4 9.1 1.14
      vertex 11.4 1.6 -0.16
    endloop
  endfacet
  facet normal 0 0.17078672 -0.98530802
    outer loop
      vertex 10.2 1.6 -0.16
      vertex 10.2 9.1 1.14
      vertex 11.4 9.1 1.14
    endloop
  endfacet
  facet normal 0 -1 0
    outer loop
      vertex 10.2 1.6 0
      vertex 10.2 1.6 -0.16
      vertex 11.4 1.6 -0.16
    endloop
  endfacet
  facet normal 0 -1 0
    outer loop
      vertex 10.2 1.6 0
      vertex 11.4 1.6 -0.16
      vertex 11.4 1.6 0
    endloop
  endfacet
  facet normal 1 -0 0
    outer loop
      vertex 11.4 1.6 0
      vertex 11.4 1.6 -0.16
      vertex 11.4 9.1 1.14
    endloop
  endfacet
  facet normal 1 0 0
    outer loop
      vertex 11.4 1.6 0
      vertex 11.4 9.1 1.14
      vertex 11.4 9.1 1.3
    endloop
  endfacet
  facet normal 0 1 0
    outer loop
      vertex 11.4 9.1 1.3
      vertex 11.4 9.1 1.14
      vertex 10.2 9.1 1.14
    endloop
  endfacet
  facet normal 0 1 0
    outer loop
      vertex 11.4 9.1 1.3
      vertex 10.2 9.1 1.14
      vertex 10.2 9.1 1.3
    endloop
  endfacet
  facet normal -1 0 -0
    outer loop
      vertex 10.2 9.1 1.3
      vertex 10.2 9.1 1.14
      vertex 10.2 1.6 -0.16
    endloop
  endfacet
  facet normal -1 0 0
    outer loop
      vertex 10.2 9.1 1.3
      vertex 10.2 1.6 -0.16
      vertex 10.2 1.6 0
    endloop
  endfacet
endsolid ramp_lower
